<svg width="37" height="37" viewBox="0 0 37 37" fill="none" xmlns="http://www.w3.org/2000/svg">
<path opacity="0.8" d="M35.4388 9.94781C34.8853 10.7057 34.1473 11.2741 34.1473 11.8425C34.1473 12.411 34.7008 12.9794 35.2543 13.7373C36.1768 14.6846 37.0992 15.4425 36.9147 16.3899C36.9147 17.3373 35.9923 18.2846 35.0698 19.232L27.5056 27.0004L24.9226 24.5373L32.6714 16.5794L30.8264 14.6846L28.2435 17.3373L21.2328 10.1373L28.6125 2.93728C29.3505 2.17938 30.4575 2.17938 31.1954 2.93728L35.4388 7.29517C36.1768 8.05307 36.1768 9.37938 35.4388 9.94781ZM2.78341 29.2741L20.4948 11.0846L27.3211 18.2846L9.79417 36.4741H2.78341V29.2741ZM10.1632 0.474121V6.15833H15.698V9.94781H10.1632V15.632H6.47329V9.94781H0.938477V6.15833H6.47329V0.474121H10.1632Z" fill="white"/>
</svg>
