<svg width="37" height="36" viewBox="0 0 37 36" fill="none" xmlns="http://www.w3.org/2000/svg">
<path opacity="0.8" fill-rule="evenodd" clip-rule="evenodd" d="M15.8637 0.769953C16.5561 0.271436 17.3982 0.00195312 18.2637 0.00195312C19.1292 0.00195312 19.9713 0.271436 20.6637 0.769953L34.6637 10.85C35.1605 11.2076 35.5637 11.6714 35.8414 12.2047C36.1191 12.7379 36.2637 13.3258 36.2637 13.922V32.162C36.2637 33.1804 35.8422 34.1571 35.0921 34.8772C34.342 35.5974 33.3245 36.002 32.2637 36.002H4.26367C3.20281 36.002 2.18539 35.5974 1.43524 34.8772C0.685099 34.1571 0.263672 33.1804 0.263672 32.162V13.922C0.263672 13.3258 0.408252 12.7379 0.685963 12.2047C0.963674 11.6714 1.36689 11.2076 1.86367 10.85L15.8637 0.769953ZM18.2637 32.162H4.26367H32.2637H18.2637Z" fill="white"/>
</svg>
