<svg width="53" height="53" viewBox="0 0 53 53" fill="none" xmlns="http://www.w3.org/2000/svg">
<circle cx="25.8417" cy="26.672" r="25.8251" fill="#458492"/>
<path d="M22.6209 27.1378L17.0361 12.1313H20.8303L24.5393 21.8514L22.6209 27.1378Z" fill="white"/>
<path d="M34.5145 12.0886L23.5096 41.4261L21.7148 36.5274L30.9334 12.0886H34.5145Z" fill="white"/>
<path d="M12.7084 11.9482H9.1543L19.9559 41.4261H23.5099L12.7084 11.9482Z" fill="white"/>
<path d="M42.5291 11.918H38.6922L28.418 41.2913H31.9564L42.5291 11.918Z" fill="white"/>
<circle cx="25.9491" cy="26.672" r="25.8251" fill="#458892"/>
<path d="M22.6209 27.1378L17.0361 12.1313H20.8303L24.5393 21.8514L22.6209 27.1378Z" fill="white"/>
<path d="M34.5145 12.0886L23.5096 41.4261L21.7148 36.5274L30.9334 12.0886H34.5145Z" fill="white"/>
<path d="M12.7084 11.9482H9.1543L19.9559 41.4261H23.5099L12.7084 11.9482Z" fill="white"/>
<path d="M42.5291 11.918H38.6922L28.418 41.2913H31.9564L42.5291 11.918Z" fill="white"/>
</svg>
